<svg xmlns="http://www.w3.org/2000/svg" viewBox="0 0 76 75" width="76" height="75">
	<style>
		tspan { white-space:pre }
		.shp0 { fill: #ffffff;stroke: #fed136;paint-order:stroke fill markers;stroke-width: 6 } 
		.shp1 { fill: #fed136 } 
	</style>
	<g id="Services">
		<g id="1 - E-Commerce">
			<path id="Circle-1" class="shp0" d="M38.03 4.19C56.33 4.19 71.16 19.02 71.16 37.31C71.16 55.6 56.33 70.43 38.03 70.43C19.74 70.43 4.91 55.6 4.91 37.31C4.91 19.02 19.74 4.19 38.03 4.19Z" />
			<path id="Icon-Basket" fill-rule="evenodd" class="shp1" d="M18.75 30.89C18.75 28.99 20.3 27.45 22.2 27.45L26.08 27.45C26.14 27.23 26.23 27.01 26.35 26.8L30.48 19.65C31.24 18.33 32.93 17.88 34.24 18.64C35.56 19.4 36.01 21.09 35.25 22.4L32.34 27.45L43.72 27.45L40.81 22.4C40.05 21.09 40.5 19.4 41.81 18.64C43.13 17.88 44.81 18.33 45.58 19.65L49.71 26.8C49.83 27.01 49.91 27.23 49.98 27.45L53.86 27.45C55.76 27.45 57.3 28.99 57.3 30.89C57.3 32.79 55.76 34.33 53.86 34.33L22.2 34.33C20.3 34.33 18.75 32.79 18.75 30.89ZM53.28 56.36L22.78 56.36L21.59 35.71L54.47 35.71L53.28 56.36ZM36.65 42.59L36.65 50.85C36.65 51.61 37.27 52.23 38.03 52.23C38.79 52.23 39.4 51.61 39.4 50.85L39.4 42.59C39.4 41.83 38.79 41.21 38.03 41.21C37.27 41.21 36.65 41.83 36.65 42.59ZM44.91 42.59L44.91 50.85C44.91 51.61 45.53 52.23 46.29 52.23C47.05 52.23 47.66 51.61 47.66 50.85L47.66 42.59C47.66 41.83 47.05 41.21 46.29 41.21C45.53 41.21 44.91 41.83 44.91 42.59ZM28.39 42.59L28.39 50.85C28.39 51.61 29.01 52.23 29.77 52.23C30.53 52.23 31.14 51.61 31.14 50.85L31.14 42.59C31.14 41.83 30.53 41.21 29.77 41.21C29.01 41.21 28.39 41.83 28.39 42.59Z" />
		</g>
	</g>
</svg>