<svg xmlns="http://www.w3.org/2000/svg" viewBox="0 0 76 75" width="76" height="75">
	<style>
		tspan { white-space:pre }
		.shp0 { fill: #ffffff;stroke: #fed136;paint-order:stroke fill markers;stroke-width: 6 } 
		.shp1 { fill: #fed136 } 
	</style>
	<g id="Services">
		<g id="2 - Responsive Web">
			<path id="Circle-2" class="shp0" d="M37.91 4.19C56.21 4.19 71.04 19.02 71.04 37.32C71.04 55.61 56.21 70.44 37.91 70.44C19.62 70.44 4.79 55.61 4.79 37.32C4.79 19.02 19.62 4.19 37.91 4.19Z" />
			<path id="Icon-Laptop" fill-rule="evenodd" class="shp1" d="M25.36 20.9L52.26 20.9C54.49 20.9 56.3 22.71 56.3 24.94L56.3 42.43C56.3 42.9 56.22 43.35 56.07 43.77L56.3 43.77L56.3 46.46L52.26 46.46L52.26 24.94L25.36 24.94L25.36 46.46L21.32 46.46L21.32 43.77L21.55 43.77C21.4 43.35 21.32 42.9 21.32 42.43L21.32 24.94C21.32 22.71 23.13 20.9 25.36 20.9ZM21.32 49.15L56.3 49.15C57.79 49.15 58.99 50.36 58.99 51.84C58.99 53.33 56.44 54.53 54.95 54.53L22.67 54.53C21.18 54.53 18.63 53.33 18.63 51.84C18.63 50.36 19.83 49.15 21.32 49.15ZM33.43 52.52C33.43 52.89 34.03 53.19 34.77 53.19L42.85 53.19C43.59 53.19 44.19 52.89 44.19 52.52C44.19 52.14 43.59 51.84 42.85 51.84L34.77 51.84C34.03 51.84 33.43 52.14 33.43 52.52ZM29.78 36.68L31.67 34.78C32.19 34.26 33.04 34.26 33.56 34.78L36.05 37.28L44.05 29.24C44.57 28.71 45.42 28.71 45.94 29.24L47.84 31.14C48.36 31.66 48.36 32.52 47.84 33.04L37.42 43.51C36.97 43.96 36.29 44.02 35.77 43.7C35.33 43.8 34.85 43.69 34.51 43.34L29.78 38.59C29.25 38.06 29.25 37.21 29.78 36.68Z" />
		</g>
	</g>
</svg>