<svg xmlns="http://www.w3.org/2000/svg" viewBox="0 0 76 75" width="76" height="75">
	<style>
		tspan { white-space:pre }
		.shp0 { fill: #ffffff;stroke: #fed136;paint-order:stroke fill markers;stroke-width: 6 } 
		.shp1 { fill: #fed136 } 
	</style>
	<g id="Services">
		<g id="3 - Web Security">
			<path id="Circle-3" class="shp0" d="M37.96 4.19C56.25 4.19 71.08 19.02 71.08 37.31C71.08 55.6 56.25 70.43 37.96 70.43C19.66 70.43 4.83 55.6 4.83 37.31C4.83 19.02 19.66 4.19 37.96 4.19Z" />
			<path id="Icon-Locked" fill-rule="evenodd" class="shp1" d="M37.68 16.63C42.84 16.63 47.02 20.29 47.02 24.8L47.02 34.13L48.18 34.13C50.12 34.13 51.68 35.7 51.68 37.63L51.68 50.46C51.68 52.4 50.12 53.96 48.18 53.96L27.19 53.96C25.25 53.96 23.69 52.4 23.69 50.46L23.69 37.63C23.69 35.7 25.25 34.13 27.19 34.13L28.35 34.13L28.35 24.8C28.35 20.29 32.53 16.63 37.68 16.63ZM33.02 24.8L33.02 32.97C33.02 33.37 33.11 33.77 33.28 34.13L42.09 34.13C42.26 33.77 42.35 33.37 42.35 32.97L42.35 24.8C42.35 22.87 40.26 21.3 37.68 21.3C35.11 21.3 33.02 22.87 33.02 24.8ZM35.35 48.13C35.35 49.42 36.4 50.46 37.68 50.46C38.97 50.46 40.02 49.42 40.02 48.13L40.02 46.34C41.41 45.53 42.35 44.03 42.35 42.3C42.35 39.72 40.26 37.63 37.68 37.63C35.11 37.63 33.02 39.72 33.02 42.3C33.02 44.03 33.96 45.53 35.35 46.34L35.35 48.13Z" />
		</g>
	</g>
</svg>