<svg xmlns="http://www.w3.org/2000/svg" width="56" height="56" viewBox="0 0 56 56">
  <metadata><?xpacket begin="﻿" id="W5M0MpCehiHzreSzNTczkc9d"?>
<x:xmpmeta xmlns:x="adobe:ns:meta/" x:xmptk="Adobe XMP Core 5.6-c142 79.160924, 2017/07/13-01:06:39        ">
   <rdf:RDF xmlns:rdf="http://www.w3.org/1999/02/22-rdf-syntax-ns#">
      <rdf:Description rdf:about=""/>
   </rdf:RDF>
</x:xmpmeta>
                                                                                                    
                                                                                                    
                                                                                                    
                                                                                                    
                                                                                                    
                                                                                                    
                                                                                                    
                                                                                                    
                                                                                                    
                                                                                                    
                                                                                                    
                                                                                                    
                                                                                                    
                                                                                                    
                                                                                                    
                                                                                                    
                                                                                                    
                                                                                                    
                                                                                                    
                                                                                                    
                           
<?xpacket end="w"?></metadata>
<defs>
    <style>
      .cls-1 {
        fill: #fce38a;
      }

      .cls-2 {
        fill: #f38181;
        fill-rule: evenodd;
      }
    </style>
  </defs>
  <rect class="cls-1" width="56" height="56"/>
  <path id="instagram" class="cls-2" d="M37.7,40.8H18.5a3.2,3.2,0,0,1-3.2-3.2V18.4a3.2,3.2,0,0,1,3.2-3.2H37.7a3.2,3.2,0,0,1,3.2,3.2V37.6A3.2,3.2,0,0,1,37.7,40.8Zm-9.6-17.76a4.957,4.957,0,0,0-4.5,2.88h0c-0.008.018-.014,0.037-0.022,0.055-0.047.105-.089,0.213-0.129,0.321-0.019.052-.04,0.1-0.057,0.155-0.037.111-.067,0.225-0.1,0.34-0.014.054-.029,0.106-0.041,0.16-0.026.121-.044,0.244-0.061,0.368-0.007.05-.017,0.1-0.023,0.15a4.96,4.96,0,1,0,9.862,0c-0.005-.051-0.016-0.1-0.023-0.15-0.017-.124-0.035-0.247-0.061-0.368-0.012-.054-0.028-0.107-0.041-0.16-0.029-.114-0.059-0.228-0.1-0.34-0.017-.052-0.038-0.1-0.057-0.155-0.04-.108-0.081-0.216-0.129-0.321-0.008-.018-0.014-0.037-0.022-0.055h0A4.957,4.957,0,0,0,28.1,23.039Zm9.92-3.68a1.28,1.28,0,0,0-1.28-1.28H34.18a1.28,1.28,0,0,0-1.28,1.28V21.92a1.28,1.28,0,0,0,1.28,1.28h2.56a1.28,1.28,0,0,0,1.28-1.28V19.359Zm0,6.56H35.66a7.84,7.84,0,1,1-15.121,0H18.18v10.72a1.28,1.28,0,0,0,1.28,1.28H36.74a1.28,1.28,0,0,0,1.28-1.28V25.919Z"/>
</svg>
