<svg xmlns="http://www.w3.org/2000/svg" width="56" height="56" viewBox="0 0 56 56">
  <metadata><?xpacket begin="﻿" id="W5M0MpCehiHzreSzNTczkc9d"?>
<x:xmpmeta xmlns:x="adobe:ns:meta/" x:xmptk="Adobe XMP Core 5.6-c142 79.160924, 2017/07/13-01:06:39        ">
   <rdf:RDF xmlns:rdf="http://www.w3.org/1999/02/22-rdf-syntax-ns#">
      <rdf:Description rdf:about=""/>
   </rdf:RDF>
</x:xmpmeta>
                                                                                                    
                                                                                                    
                                                                                                    
                                                                                                    
                                                                                                    
                                                                                                    
                                                                                                    
                                                                                                    
                                                                                                    
                                                                                                    
                                                                                                    
                                                                                                    
                                                                                                    
                                                                                                    
                                                                                                    
                                                                                                    
                                                                                                    
                                                                                                    
                                                                                                    
                                                                                                    
                           
<?xpacket end="w"?></metadata>
<defs>
    <style>
      .cls-1 {
        fill: #fce38a;
      }

      .cls-2 {
        fill: #f38181;
        fill-rule: evenodd;
      }
    </style>
  </defs>
  <rect class="cls-1" width="56" height="56"/>
  <path id="twitter" class="cls-2" d="M32.513,17.6a5.4,5.4,0,0,1,4.151,1.648,8.5,8.5,0,0,0,2.691-.907l0.653-.357a5.253,5.253,0,0,1-1.7,2.465,2.523,2.523,0,0,1-.577.409v0.012a9.835,9.835,0,0,0,2.973-.8v0.013a8.5,8.5,0,0,1-1.781,2.044l-0.82.651a15.045,15.045,0,0,1-.243,3.373c-1.312,5.895-4.787,9.9-10.289,11.611a15.729,15.729,0,0,1-7.431.306,19.19,19.19,0,0,1-3.088-1.009,12.288,12.288,0,0,1-1.486-.767L15.1,36.009a8.564,8.564,0,0,0,1.679.064c0.516-.084,1.023-0.061,1.5-0.166A10.77,10.77,0,0,0,21.43,34.77a5.862,5.862,0,0,0,1.422-.932,4.475,4.475,0,0,1-1.563-.281,5.275,5.275,0,0,1-3.331-3.36,5.207,5.207,0,0,0,2.345-.1,3.845,3.845,0,0,1-1.717-.69,5.053,5.053,0,0,1-2.473-4.5l0.538,0.255a5.773,5.773,0,0,0,1.1.307,1.574,1.574,0,0,0,.718.063H18.444c-0.264-.307-0.7-0.513-0.961-0.843A5.365,5.365,0,0,1,16.3,19.926a6.1,6.1,0,0,1,.564-1.367l0.026,0.013a3.2,3.2,0,0,0,.474.549,9.61,9.61,0,0,0,1.563,1.494,15.461,15.461,0,0,0,6.419,3.1,10.016,10.016,0,0,0,2.358.307,4.881,4.881,0,0,1,.026-2.466,5.178,5.178,0,0,1,2.973-3.525,6.316,6.316,0,0,1,1.166-.358Z"/>
</svg>
