<svg xmlns="http://www.w3.org/2000/svg" width="56" height="56" viewBox="0 0 56 56"><path fill="$link-color_hover" d="M0 0h56v56H0z"/><path id="instagram" d="M37.7 40.8H18.5a3.2 3.2 0 01-3.2-3.2V18.4a3.2 3.2 0 013.2-3.2h19.2a3.2 3.2 0 013.2 3.2v19.2a3.2 3.2 0 01-3.2 3.2zm-9.6-17.76a4.957 4.957 0 00-4.5 2.88l-.022.055a5.241 5.241 0 00-.129.321c-.019.052-.04.1-.057.155-.037.111-.067.225-.1.34-.014.054-.029.106-.041.16a4.952 4.952 0 00-.061.368c-.007.05-.017.1-.023.15a4.96 4.96 0 109.862 0c-.005-.051-.016-.1-.023-.15a4.952 4.952 0 00-.061-.368c-.012-.054-.028-.107-.041-.16a3.469 3.469 0 00-.1-.34c-.017-.052-.038-.1-.057-.155a4.672 4.672 0 00-.129-.321l-.022-.055a4.957 4.957 0 00-4.496-2.881zm9.92-3.68a1.28 1.28 0 00-1.28-1.28h-2.56a1.28 1.28 0 00-1.28 1.28v2.56a1.28 1.28 0 001.28 1.28h2.56a1.28 1.28 0 001.28-1.28v-2.561zm0 6.56h-2.36a7.84 7.84 0 11-15.121 0H18.18v10.72a1.28 1.28 0 001.28 1.28h17.28a1.28 1.28 0 001.28-1.28V25.919z" fill="#f38181" fill-rule="evenodd"/></svg>