<svg xmlns="http://www.w3.org/2000/svg" width="56" height="56" viewBox="0 0 56 56"><path fill="$link-color_hover" d="M0 0h56v56H0z"/><path id="pinterest" d="M26.051 31.854c-.209.833-.42 1.706-.638 2.561a19.546 19.546 0 01-.718 2.469 12.65 12.65 0 01-2.044 3.522c-.575.667-.452.4-.626.365-.132-.027-.144-.157-.169-.344a19.292 19.292 0 01.008-3.34 18.047 18.047 0 01.588-3.471c.485-2.063.946-4.087 1.435-6.164a1.37 1.37 0 00.09-.445 6.413 6.413 0 01-.429-1.7 5.408 5.408 0 01.139-1.943 3.209 3.209 0 011.894-2.338 2.175 2.175 0 011.734.132 1.884 1.884 0 01.867 1.245 4.491 4.491 0 01-.08 1.892c-.267 1.218-.618 2.133-.937 3.309a3.64 3.64 0 00-.189 1.812 2.106 2.106 0 00.848 1.275 2.465 2.465 0 001.625.455 3.552 3.552 0 002.651-1.569 9.272 9.272 0 001.675-4.686 11.517 11.517 0 00.07-2.014 5.479 5.479 0 00-1.126-3.117 5.28 5.28 0 00-2.512-1.711 8.332 8.332 0 00-3.748-.233 6.636 6.636 0 00-4.914 3.533 7.079 7.079 0 00-.837 3.41 4.427 4.427 0 00.678 2.5c.133.2.328.367.459.6a1.729 1.729 0 01-.12 1.164c-.11.425-.121 1.012-.618 1.022a1.506 1.506 0 01-.638-.243 5.117 5.117 0 01-2.422-3.734 8.936 8.936 0 010-3.238 9.214 9.214 0 014.4-6.143 10.448 10.448 0 013.907-1.346c.509-.074 1.034-.1 1.605-.132a9.638 9.638 0 014.326.809 8.85 8.85 0 012.98 2.146A8.122 8.122 0 0137.1 21.47a7.976 7.976 0 01.4 2.287 13.725 13.725 0 01-.308 2.368 9.329 9.329 0 01-3.838 6.458 6.635 6.635 0 01-1.754.809 6.408 6.408 0 01-2.243.283 4.6 4.6 0 01-1.983-.577 3.287 3.287 0 01-1.323-1.244z" fill="#f38181" fill-rule="evenodd"/></svg>