<svg xmlns="http://www.w3.org/2000/svg" width="56" height="56" viewBox="0 0 56 56"><path fill="$link-color_hover" d="M0 0h56v56H0z"/><path id="twitter" d="M32.513 17.6a5.4 5.4 0 014.151 1.648 8.5 8.5 0 002.691-.907l.653-.357a5.253 5.253 0 01-1.7 2.465 2.523 2.523 0 01-.577.409v.012a9.835 9.835 0 002.973-.8v.013a8.5 8.5 0 01-1.781 2.044l-.82.651a15.045 15.045 0 01-.243 3.373c-1.312 5.895-4.787 9.9-10.289 11.611a15.729 15.729 0 01-7.431.306 19.19 19.19 0 01-3.088-1.009 12.288 12.288 0 01-1.486-.767l-.466-.283a8.564 8.564 0 001.679.064c.516-.084 1.023-.061 1.5-.166a10.77 10.77 0 003.151-1.137 5.862 5.862 0 001.422-.932 4.475 4.475 0 01-1.563-.281 5.275 5.275 0 01-3.331-3.36 5.207 5.207 0 002.345-.1 3.845 3.845 0 01-1.717-.69 5.053 5.053 0 01-2.473-4.5l.538.255a5.773 5.773 0 001.1.307 1.574 1.574 0 00.718.063h-.025c-.264-.307-.7-.513-.961-.843a5.365 5.365 0 01-1.183-4.763 6.1 6.1 0 01.564-1.367l.026.013a3.2 3.2 0 00.474.549 9.61 9.61 0 001.563 1.494 15.461 15.461 0 006.419 3.1 10.016 10.016 0 002.358.307 4.881 4.881 0 01.026-2.466 5.178 5.178 0 012.973-3.525 6.316 6.316 0 011.166-.358z" fill="#f38181" fill-rule="evenodd"/></svg>